<svg width="58" height="58" viewBox="0 0 58 58" fill="none" xmlns="http://www.w3.org/2000/svg">
<g clip-path="url(#clip0_1141_160)">
<circle cx="29" cy="29" r="24" fill="#1F3028"/>
<circle cx="29" cy="29" r="28.5" stroke="#1F3028" stroke-opacity="0.24"/>
<g clip-path="url(#clip1_1141_160)">
<path d="M21.3771 18.0816C21.3084 18.1289 21.2139 18.2277 21.1623 18.3094C21.0764 18.4426 21.0721 18.5199 21.0592 19.5125L21.042 20.5781H23.4955H25.949V19.491C25.949 18.2965 25.9404 18.2664 25.6654 18.0816C25.5494 18.0043 25.4291 18 23.5213 18C21.6049 18 21.4975 18.0043 21.3771 18.0816Z" fill="white"/>
<path d="M32.0336 18.0816C31.8359 18.2148 31.75 18.3781 31.75 18.6445C31.75 18.9109 31.8359 19.0742 32.0336 19.2074C32.1367 19.2719 32.2398 19.2891 32.6008 19.2891H33.0391V20.4277V21.5664H34.9727H36.9062V20.4277V19.2891H37.3488C37.7055 19.2891 37.8086 19.2719 37.9117 19.2074C38.1094 19.0742 38.1953 18.9109 38.1953 18.6445C38.1953 18.3781 38.1094 18.2148 37.9117 18.0816C37.7914 18.0043 37.6582 18 34.9727 18C32.2871 18 32.1539 18.0043 32.0336 18.0816Z" fill="white"/>
<path d="M21.0507 22.9586V24.05L20.6124 24.0672C20.2171 24.0801 20.1354 24.1016 19.869 24.2305C19.478 24.4195 19.1343 24.759 18.9409 25.1543L18.7948 25.4551L18.7819 26.7312L18.769 28.0117H23.5214H28.2737L28.2608 26.7312L28.2479 25.4551L28.1019 25.1543C27.9085 24.759 27.569 24.4195 27.1737 24.2305C26.903 24.0973 26.83 24.0801 26.4132 24.0672L25.9491 24.05V22.9586V21.8672H23.4999H21.0507V22.9586Z" fill="white"/>
<path d="M31.0023 22.9371C30.8047 23.0703 30.7188 23.2336 30.7188 23.5C30.7188 23.9383 30.9465 24.1445 31.4406 24.1445H31.75V26.0781V28.0117H34.9727H38.1953V27.3715V26.727L36.9191 26.7141C35.6902 26.7012 35.6344 26.6969 35.4883 26.6066C35.0801 26.3531 35.0844 25.7902 35.4969 25.541C35.6301 25.4594 35.7289 25.4551 36.9191 25.4422L38.1953 25.4293V24.7848V24.1445H38.509C38.9988 24.1445 39.2266 23.9383 39.2266 23.5C39.2266 23.2336 39.1406 23.0703 38.943 22.9371C38.8227 22.8598 38.668 22.8555 34.9727 22.8555C31.2773 22.8555 31.1227 22.8598 31.0023 22.9371Z" fill="white"/>
<path d="M18.7734 31.9219V34.543H23.5215H28.2695V31.9219V29.3008H23.5215H18.7734V31.9219Z" fill="white"/>
<path d="M31.75 31.4922V33.6836H34.9727H38.1953V32.7855V31.8832L36.9191 31.8703C35.7289 31.8574 35.6301 31.8531 35.4969 31.7715C35.3035 31.6555 35.1875 31.4578 35.1875 31.2387C35.1875 31.0023 35.2777 30.8348 35.4754 30.7102C35.6344 30.6113 35.6602 30.6113 36.9191 30.5984L38.1953 30.5855V29.941V29.3008H34.9727H31.75V31.4922Z" fill="white"/>
<path d="M33.0391 35.5957V36.2617H34.9727H36.9062V35.5957V34.9297H34.9727H33.0391V35.5957Z" fill="white"/>
<path d="M18.7819 37.1942L18.7948 38.6036L18.9323 38.8872C19.1858 39.3985 19.5683 39.738 20.0925 39.9141C20.3374 40.0001 20.4405 40.0001 23.6116 39.9915L26.8729 39.9786L27.1737 39.8325C27.569 39.6391 27.9085 39.2997 28.1019 38.9044L28.2479 38.6036L28.2608 37.1942L28.2737 35.7891H23.5214H18.769L18.7819 37.1942Z" fill="white"/>
<path d="M34.3281 38.5477C34.3281 39.6993 34.3367 39.7379 34.6117 39.9184C34.7793 40.0301 35.166 40.0301 35.3336 39.9184C35.6086 39.7379 35.6172 39.6993 35.6172 38.5477V37.5079H34.9727H34.3281V38.5477Z" fill="white"/>
</g>
</g>
<defs>
<clipPath id="clip0_1141_160">
<rect width="58" height="58" fill="white"/>
</clipPath>
<clipPath id="clip1_1141_160">
<rect width="22" height="22" fill="white" transform="translate(18 18)"/>
</clipPath>
</defs>
</svg>
