<svg width="58" height="58" viewBox="0 0 58 58" fill="none" xmlns="http://www.w3.org/2000/svg">
<g clip-path="url(#clip0_1141_184)">
<circle cx="29" cy="29" r="24" fill="#1F3028"/>
<circle cx="29" cy="29" r="28.5" stroke="#1F3028" stroke-opacity="0.24"/>
<g clip-path="url(#clip1_1141_184)">
<path d="M22.8553 18.7778C20.4577 19.0871 18.4811 20.9778 18.0643 23.3582C17.9827 23.8481 17.9784 24.8321 18.0643 25.3305C18.2534 26.4434 18.7604 27.4574 19.5296 28.2653L19.8776 28.6305L20.1311 28.5188C20.5264 28.3469 20.7971 28.2996 21.2612 28.3254C21.7467 28.3512 22.0905 28.4586 22.4729 28.7035C23.1776 29.1633 23.6288 29.9496 23.6288 30.7274V31.0024L23.8823 31.0539C24.7288 31.2301 25.528 32.0035 25.7557 32.8672C25.7901 32.9961 25.8202 33.1551 25.8202 33.2196C25.8202 33.327 25.8374 33.3399 25.962 33.3399C26.2155 33.3399 26.7698 33.5074 27.062 33.6707C27.4788 33.9028 27.8741 34.3153 28.0889 34.7535C28.1878 34.9512 28.2694 35.1403 28.2694 35.1746C28.2694 35.2219 28.2909 35.2305 28.3467 35.209C28.3854 35.1875 28.6046 35.166 28.828 35.1574C29.5069 35.1231 30.1171 35.3379 30.5854 35.7676C30.7788 35.9524 30.8905 36.0168 31.0796 36.0641C31.5221 36.1801 31.9389 36.0168 32.1495 35.6516C32.2999 35.3852 32.3256 35.1832 32.244 34.8953C32.1753 34.6547 32.128 34.6031 30.3061 32.7813L28.4413 30.9078L28.9913 30.3621L29.537 29.8164L31.3417 31.6254C32.3342 32.618 33.2323 33.4817 33.3397 33.5461C33.4944 33.6363 33.5889 33.6621 33.7909 33.6621C34.2936 33.6621 34.6717 33.3141 34.7061 32.8285C34.7405 32.3516 34.7921 32.416 32.7467 30.3621L30.869 28.4844L31.4276 27.9258L31.9862 27.3672L33.8768 29.2535C35.8663 31.243 35.8577 31.2344 36.2358 31.2344C36.5967 31.2344 37.0092 30.9465 37.121 30.6113C37.194 30.3922 37.151 29.984 37.0393 29.8078C36.9921 29.7305 35.8448 28.5574 34.487 27.2039L32.0206 24.7375L31.7241 24.8879C30.6799 25.4078 29.5241 25.4379 28.5401 24.9653C27.9815 24.6946 27.8354 24.5785 26.8385 23.5903L25.9061 22.6621L26.903 21.6653L27.9042 20.6641L27.6034 20.3633C27.0104 19.766 26.0565 19.1989 25.253 18.9711C24.5053 18.7563 23.5901 18.6832 22.8553 18.7778Z" fill="white"/>
<path d="M33.5117 18.7949C32.6867 18.9324 31.823 19.2719 31.1613 19.7273C30.8133 19.9594 28.1406 22.5633 28.1406 22.6664C28.1406 22.7352 28.7121 23.268 28.9527 23.4184C29.5457 23.7965 30.4523 23.818 31.0625 23.4699C31.1699 23.4055 31.4363 23.182 31.6555 22.9672L32.0551 22.5805L35.0844 25.6055L38.1137 28.6348L38.466 28.2695C39.0547 27.6551 39.4844 26.9332 39.7379 26.134C39.927 25.5367 40 25.0383 40 24.3594C40 23.3883 39.8324 22.6578 39.4199 21.8371C39.1363 21.2613 38.8613 20.8789 38.4059 20.4191C37.6152 19.6156 36.7473 19.1301 35.6602 18.8723C35.0844 18.7391 34.066 18.7004 33.5117 18.7949Z" fill="white"/>
<path d="M20.8231 29.9282C20.6555 29.9797 20.5266 30.0786 20.1485 30.4524C19.65 30.9422 19.5082 31.17 19.5039 31.4664C19.4996 32.1797 20.1914 32.6395 20.8317 32.3516C21.0551 32.2485 21.7856 31.5481 21.9317 31.2989C22.1637 30.895 22.0949 30.4223 21.7598 30.1258C21.5793 29.9668 21.3 29.8551 21.1067 29.8637C21.0637 29.8637 20.9348 29.8938 20.8231 29.9282Z" fill="white"/>
<path d="M22.9156 32.6524C22.8168 32.6996 22.5246 32.9574 22.2668 33.2238C21.9187 33.5848 21.7855 33.7481 21.7468 33.8813C21.6351 34.2723 21.7125 34.5731 21.996 34.8481C22.2281 35.0758 22.4945 35.1617 22.791 35.1059C23.0746 35.0543 23.1992 34.9641 23.7019 34.4484C24.2003 33.9371 24.2734 33.8082 24.2734 33.4645C24.2734 33.2324 24.0671 32.8672 23.8523 32.7168C23.6031 32.5449 23.182 32.5149 22.9156 32.6524Z" fill="white"/>
<path d="M25.4552 35.0113C25.2317 35.1187 24.381 35.9781 24.295 36.1844C24.136 36.5711 24.2864 37.0824 24.6216 37.3187C24.7591 37.4133 24.8579 37.4434 25.0685 37.4562C25.4895 37.482 25.6099 37.4219 26.1341 36.9105C26.6841 36.3734 26.7657 36.2402 26.7657 35.8621C26.7657 35.5184 26.6411 35.2605 26.3833 35.0801C26.147 34.9125 25.7216 34.8824 25.4552 35.0113Z" fill="white"/>
<path d="M28.6391 36.7602C28.4715 36.8117 28.3383 36.9149 27.9645 37.2801C27.4402 37.7914 27.3242 37.9805 27.3242 38.3285C27.3285 39.0203 28.0203 39.4758 28.6348 39.1879C28.841 39.0934 29.7477 38.1824 29.8121 38.0106C29.8895 37.8129 29.868 37.3961 29.7777 37.2156C29.5672 36.8074 29.0945 36.6184 28.6391 36.7602Z" fill="white"/>
</g>
</g>
<defs>
<clipPath id="clip0_1141_184">
<rect width="58" height="58" fill="white"/>
</clipPath>
<clipPath id="clip1_1141_184">
<rect width="22" height="22" fill="white" transform="translate(18 18)"/>
</clipPath>
</defs>
</svg>
