<svg width="58" height="58" viewBox="0 0 58 58" fill="none" xmlns="http://www.w3.org/2000/svg">
<circle cx="29" cy="29" r="24" fill="#1F3028"/>
<circle cx="29" cy="29" r="28.5" stroke="#1F3028" stroke-opacity="0.24"/>
<g clip-path="url(#clip0_1141_176)">
<path d="M33 21C33 19.89 33.89 19 35 19C36.11 19 37 19.89 37 21C37 22.11 36.11 23 35 23C33.89 23 33 22.11 33 21ZM37 39V33H39.5L36.96 25.37C36.68 24.55 35.92 24 35.06 24H34.94C34.08 24 33.31 24.55 33.04 25.37L32.18 27.95C33.26 28.55 34 29.68 34 31V39H37ZM29.5 28.5C30.33 28.5 31 27.83 31 27C31 26.17 30.33 25.5 29.5 25.5C28.67 25.5 28 26.17 28 27C28 27.83 28.67 28.5 29.5 28.5ZM22.5 23C23.61 23 24.5 22.11 24.5 21C24.5 19.89 23.61 19 22.5 19C21.39 19 20.5 19.89 20.5 21C20.5 22.11 21.39 23 22.5 23ZM24.5 39V32H26V26C26 24.9 25.1 24 24 24H21C19.9 24 19 24.9 19 26V32H20.5V39H24.5ZM31 39V35H32V31C32 30.18 31.32 29.5 30.5 29.5H28.5C27.68 29.5 27 30.18 27 31V35H28V39H31Z" fill="#F6F6F6"/>
</g>
<defs>
<clipPath id="clip0_1141_176">
<rect width="24" height="24" fill="white" transform="translate(17 17)"/>
</clipPath>
</defs>
</svg>
