<svg width="58" height="58" viewBox="0 0 58 58" fill="none" xmlns="http://www.w3.org/2000/svg">
<g clip-path="url(#clip0_1141_149)">
<circle cx="29" cy="29" r="24" fill="#1F3028"/>
<circle cx="29" cy="29" r="28.5" stroke="#1F3028" stroke-opacity="0.24"/>
<path d="M26.7956 18.5586C26.1425 18.6359 25.4894 18.8637 25.0038 19.1817C24.0628 19.8047 23.4569 20.8961 23.2808 22.2754C23.2077 22.8684 23.2507 24.1789 23.3624 24.6945C23.7405 26.4391 24.6858 27.8098 25.9276 28.4027C26.787 28.8195 27.7925 28.8582 28.6562 28.5188C29.971 27.9988 31.0323 26.5852 31.4233 24.8277C31.6854 23.6504 31.6339 22.168 31.2987 21.1797C30.8218 19.7832 29.8593 18.9195 28.4413 18.6274C28.0288 18.5457 27.2253 18.5113 26.7956 18.5586Z" fill="white"/>
<path d="M26.164 29.1804C23.7104 29.3652 21.8585 30.1859 20.8358 31.5437C20.4104 32.1066 20.0839 32.8758 19.9979 33.5117C19.9636 33.7824 20.0667 33.9586 20.4147 34.2207C21.5104 35.0414 23.444 35.5011 26.3229 35.6172C27.2468 35.6558 28.1835 35.6429 28.1835 35.5914C28.1835 35.5871 28.1362 35.3851 28.0804 35.1488C27.9042 34.4312 27.8741 34.023 27.8913 32.5191L27.9042 31.1183L28.0245 30.9422C28.089 30.8433 28.2222 30.7187 28.3253 30.6672C28.48 30.5855 28.553 30.5726 28.8495 30.5898C29.4854 30.6242 30.3491 30.607 30.6757 30.5511C31.2858 30.4437 32.1538 30.1172 32.0679 30.0312C31.9776 29.941 31.0925 29.623 30.5683 29.4941C29.2921 29.1719 27.7366 29.0601 26.164 29.1804Z" fill="white"/>
<path d="M33.0818 30.4008C32.7596 30.6672 32.1279 31.0066 31.6639 31.1613C30.9721 31.389 30.6842 31.4277 29.6486 31.4277H28.6904L28.7119 32.8457C28.7334 34.3797 28.7721 34.689 29.0256 35.4625C29.5326 37.0179 30.6842 38.3758 32.0936 39.0761C33.0947 39.5789 33.5502 39.5918 34.4826 39.1449C36.21 38.3199 37.4861 36.6742 37.8686 34.7793C37.9846 34.1992 38.0232 33.6621 38.0232 32.5191V31.4191L37.2842 31.4406C36.4678 31.4621 36.008 31.4191 35.3893 31.2558C34.6803 31.0711 34.0572 30.7617 33.576 30.3535L33.3611 30.173L33.0818 30.4008ZM34.1002 31.8359C34.8564 32.184 35.9865 32.4375 36.8115 32.4375H37.035V33.1551C37.035 34.1992 36.9104 34.8652 36.5666 35.6558C36.2143 36.4765 35.501 37.3574 34.7877 37.8429C34.4311 38.0879 33.7393 38.4359 33.5158 38.4789L33.3826 38.5047V34.9769V31.4492L33.6104 31.5824C33.7307 31.6554 33.9541 31.7672 34.1002 31.8359Z" fill="white"/>
</g>
<defs>
<clipPath id="clip0_1141_149">
<rect width="58" height="58" fill="white"/>
</clipPath>
</defs>
</svg>
