<svg width="79" height="77" viewBox="0 0 79 77" fill="none" xmlns="http://www.w3.org/2000/svg">
<g clip-path="url(#clip0_1141_423)">
<path d="M73.8758 44.7703C74.1748 44.7687 74.4737 44.7672 74.7711 44.7656C74.624 45.0495 74.6178 45.3535 74.6193 45.6653C74.6255 46.9573 74.6054 48.2493 74.6255 49.5398C74.6952 54.1047 72.8379 57.8707 69.8514 61.1776C68.4449 62.7348 66.6388 63.7244 64.8527 64.7497C58.7837 68.2396 52.7317 71.759 46.6487 75.2272C43.8976 76.7969 40.8677 77.1242 37.7619 76.9597C34.921 76.8093 32.3853 75.7825 29.9487 74.3555C23.796 70.7477 17.5875 67.2345 11.4364 63.6251C8.10441 61.6692 5.99619 58.6648 4.57729 55.1268C3.76561 53.1058 3.55339 51.0041 3.58747 48.8403C3.60761 47.4847 3.78729 46.1135 3.46045 44.7656C3.75941 44.7672 4.05837 44.7687 4.35578 44.7703C4.53702 45.0247 4.47196 45.3178 4.47351 45.597C4.47661 46.9154 4.4921 48.2323 4.47196 49.5507C4.41774 53.1492 5.79017 56.2265 7.83178 59.0929C9.2197 61.0411 11.0987 62.3548 13.1294 63.5228C17.7594 66.1844 22.3817 68.86 27.0009 71.5387C28.474 72.3934 29.9673 73.2139 31.4218 74.0965C33.0622 75.0907 34.8544 75.5514 36.7287 75.8973C39.3032 76.3734 41.7569 75.9826 44.2059 75.283C45.2793 74.9775 46.2552 74.4392 47.211 73.8731C52.8742 70.5243 58.6117 67.3043 64.2843 63.971C65.508 63.2513 66.789 62.6138 67.8842 61.7065C70.7654 59.3194 72.5405 56.2343 73.4514 52.6234C73.9718 50.5573 73.6636 48.4556 73.7565 46.371C73.7797 45.8359 73.6264 45.2868 73.8711 44.7687L73.8758 44.7703Z" fill="#05BFF2"/>
<path d="M74.7048 30.1309C74.4523 30.12 74.1983 30.1107 73.9458 30.0999C73.5678 29.3926 73.7475 28.6263 73.7754 27.8973C73.859 25.7057 73.4129 23.635 72.5455 21.6403C71.0816 18.2714 68.8495 15.5989 65.6136 13.7717C60.2881 10.7657 55.0261 7.6496 49.7176 4.61415C47.7999 3.51754 45.9906 2.20378 43.8081 1.5942C40.0981 0.556534 36.4626 0.697682 32.8983 2.15724C31.3183 2.80404 29.9257 3.81379 28.4449 4.65292C24.3384 6.98264 20.2661 9.37284 16.1813 11.7429C14.4634 12.7387 12.7022 13.6616 11.0556 14.7799C8.57715 16.4644 6.96617 18.8297 5.74864 21.4976C4.81303 23.5466 4.35762 25.701 4.45676 27.9733C4.48774 28.676 4.65503 29.4174 4.28636 30.0983C4.03387 30.1092 3.77983 30.12 3.52734 30.1293C3.70238 29.2592 3.61409 28.3797 3.60015 27.5065C3.52889 22.9168 5.39236 19.1384 8.40056 15.816C9.90156 14.1579 11.8487 13.159 13.74 12.0671C19.6712 8.64694 25.6009 5.22372 31.5259 1.78964C33.1601 0.841932 34.9601 0.331628 36.7894 0.137744C40.0517 -0.209697 43.2953 0.0307199 46.2803 1.57714C48.1701 2.55587 49.9902 3.66644 51.8335 4.73358C56.7393 7.57049 61.6373 10.4229 66.5461 13.2552C70.0035 15.2514 72.2 18.276 73.6546 21.9133C74.4322 23.8583 74.7172 25.8809 74.6335 27.9718C74.6057 28.6884 74.5267 29.4158 74.7033 30.1293L74.7048 30.1309Z" fill="#06BFF2"/>
<path d="M6.07715 44.7528C6.43807 44.7466 6.79899 44.7373 7.15991 44.7373C28.6711 44.7373 50.1839 44.7373 71.6952 44.7373C71.8501 44.7373 72.0034 44.7482 72.1583 44.7544C72.0716 47.7464 72.4805 50.7818 71.3513 53.6824C69.9401 57.3072 67.7421 60.2434 64.2939 62.204C58.7779 65.3418 53.2959 68.5401 47.8046 71.7214C46.2618 72.6148 44.7283 73.5377 42.9423 73.8634C41.0432 74.2108 39.1596 74.4187 37.1923 74.2139C34.2801 73.9099 31.859 72.5605 29.4209 71.149C24.9984 68.5913 20.5791 66.0305 16.1551 63.4774C14.1057 62.2955 11.9619 61.2469 10.3602 59.4027C7.75319 56.4029 6.06476 53.0464 6.08489 48.9748C6.09264 47.568 6.08489 46.1612 6.07715 44.7528Z" fill="#00BFF2"/>
<path d="M71.963 30.0986C71.6548 30.111 71.3465 30.1359 71.0382 30.1359C49.7578 30.1374 28.4789 30.1374 7.1985 30.1359C6.89024 30.1359 6.58199 30.111 6.27373 30.0986C6.13122 29.9621 6.11263 29.7822 6.09869 29.6007C5.74707 25.0049 7.30693 21.0993 10.3043 17.6761C11.861 15.8985 13.915 14.8671 15.8931 13.7115C20.8593 10.8079 25.8843 8.00357 30.8148 5.03791C33.5055 3.41859 36.4115 2.61358 39.5048 2.68338C42.434 2.75008 45.134 3.67917 47.6868 5.19922C53.3175 8.55265 59.0519 11.7277 64.6842 15.0765C68.851 17.5535 71.2024 21.3521 72.0172 26.1232C72.2016 27.2043 72.1319 28.287 72.1458 29.3696C72.1489 29.624 72.1675 29.8923 71.9646 30.1002L71.963 30.0986Z" fill="#00BFF2"/>
<path d="M78.1062 29.9746H0.893784C0.400161 29.9746 0 30.3753 0 30.8696V43.8149C0 44.3091 0.400161 44.7098 0.893784 44.7098H78.1062C78.5998 44.7098 79 44.3091 79 43.8149V30.8696C79 30.3753 78.5998 29.9746 78.1062 29.9746Z" fill="#114988"/>
<path d="M51.773 40.8257H26.6077C26.114 40.8257 25.7139 41.2264 25.7139 41.7207V49.8576C25.7139 50.3519 26.114 50.7526 26.6077 50.7526H51.773C52.2666 50.7526 52.6668 50.3519 52.6668 49.8576V41.7207C52.6668 41.2264 52.2666 40.8257 51.773 40.8257Z" fill="white"/>
<path d="M31.267 45.5721C31.267 46.8207 30.8039 47.5093 29.9922 47.5093C29.2765 47.5093 28.7917 46.8377 28.7793 45.6232C28.7793 44.3917 29.3091 43.7139 30.0541 43.7139C30.7992 43.7139 31.267 44.4025 31.267 45.5721ZM29.2765 45.6279C29.2765 46.5818 29.5693 47.1247 30.0216 47.1247C30.5297 47.1247 30.7713 46.5322 30.7713 45.5938C30.7713 44.6554 30.5405 44.097 30.0263 44.097C29.5925 44.097 29.2765 44.6275 29.2765 45.6279Z" fill="black"/>
<path d="M33.2591 47.4472V46.4483H31.5552V46.121L33.1909 43.7773H33.7269V46.059H34.2396V46.4483H33.7269V47.4472H33.2591ZM33.2591 46.0574V44.8321C33.2591 44.6397 33.2653 44.4474 33.2761 44.2566H33.2591C33.146 44.4707 33.0562 44.6289 32.9539 44.7995L32.0571 46.0481V46.059H33.2575L33.2591 46.0574Z" fill="black"/>
<path d="M34.3574 47.672L35.9312 43.5771H36.3154L34.7369 47.672H34.359H34.3574Z" fill="black"/>
<path d="M38.9872 45.5721C38.9872 46.8207 38.5241 47.5093 37.7124 47.5093C36.9967 47.5093 36.5119 46.8377 36.4995 45.6232C36.4995 44.3917 37.0293 43.7139 37.7744 43.7139C38.5194 43.7139 38.9872 44.4025 38.9872 45.5721ZM36.9967 45.6279C36.9967 46.5818 37.2895 47.1247 37.7418 47.1247C38.2499 47.1247 38.4916 46.5322 38.4916 45.5938C38.4916 44.6554 38.2607 44.097 37.7465 44.097C37.3127 44.097 36.9967 44.6275 36.9967 45.6279Z" fill="black"/>
<path d="M40.5209 44.2396H40.51L39.8734 44.584L39.7773 44.2055L40.5782 43.7759H41.0011V47.4473H40.5224V44.2396H40.5209Z" fill="black"/>
<path d="M42.0776 47.672L43.6514 43.5771H44.0356L42.4571 47.672H42.0792H42.0776Z" fill="black"/>
<path d="M44.271 47.4473V47.1417L44.6598 46.7633C45.5954 45.8714 46.0183 45.3968 46.0245 44.843C46.0245 44.4708 45.8433 44.1265 45.2965 44.1265C44.9634 44.1265 44.6877 44.2955 44.5188 44.4367L44.3608 44.0861C44.6149 43.8721 44.9758 43.7139 45.3987 43.7139C46.1887 43.7139 46.5217 44.2567 46.5217 44.781C46.5217 45.4588 46.0307 46.0064 45.2577 46.7524L44.965 47.0239V47.0347H46.6116V47.4473H44.271Z" fill="black"/>
<path d="M48.6981 47.4472V46.4483H46.9941V46.121L48.6299 43.7773H49.1659V46.059H49.6786V46.4483H49.1659V47.4472H48.6981ZM48.6981 46.0574V44.8321C48.6981 44.6397 48.7043 44.4474 48.7151 44.2566H48.6981C48.585 44.4707 48.4951 44.6289 48.3929 44.7995L47.496 46.0481V46.059H48.6965L48.6981 46.0574Z" fill="black"/>
<path d="M4.09521 36.3172L3.7219 37.4479H3.2417L4.46233 33.8525H5.02152L6.2468 37.4479H5.75111L5.36695 36.3172H4.09366H4.09521ZM5.27246 35.9542L4.92084 34.9197C4.84029 34.6855 4.78762 34.4714 4.73495 34.2636H4.72411C4.67144 34.4776 4.61258 34.6963 4.54288 34.915L4.19125 35.9558H5.27246V35.9542Z" fill="white"/>
<path d="M6.77686 33.9001C7.05878 33.8583 7.39491 33.8257 7.76203 33.8257C8.42811 33.8257 8.90211 33.9808 9.21656 34.2739C9.53566 34.5671 9.72309 34.9828 9.72309 35.5644C9.72309 36.1461 9.54186 36.6316 9.20572 36.962C8.86958 37.2985 8.31658 37.48 7.61797 37.48C7.28803 37.48 7.01076 37.4645 6.77686 37.4366V33.9001ZM7.24001 37.0798C7.35774 37.1016 7.52813 37.1062 7.70937 37.1062C8.70074 37.1062 9.23825 36.5509 9.23825 35.5799C9.24289 34.7315 8.76425 34.1933 7.78372 34.1933C7.54362 34.1933 7.36239 34.215 7.24001 34.2414V37.0798Z" fill="white"/>
<path d="M10.3257 33.9001C10.6076 33.8583 10.9437 33.8257 11.3109 33.8257C11.9769 33.8257 12.4509 33.9808 12.7654 34.2739C13.0845 34.5671 13.2719 34.9828 13.2719 35.5644C13.2719 36.1461 13.0907 36.6316 12.7545 36.962C12.4184 37.2985 11.8654 37.48 11.1668 37.48C10.8369 37.48 10.5596 37.4645 10.3257 37.4366V33.9001ZM10.7888 37.0798C10.9066 37.1016 11.077 37.1062 11.2582 37.1062C12.2496 37.1062 12.7871 36.5509 12.7871 35.5799C12.7917 34.7315 12.3131 34.1933 11.3325 34.1933C11.0924 34.1933 10.9112 34.215 10.7888 34.2414V37.0798Z" fill="white"/>
<path d="M14.3377 33.8525V37.4479H13.8745V33.8525H14.3377Z" fill="white"/>
<path d="M17.6567 37.3315C17.4863 37.4168 17.1455 37.5021 16.7087 37.5021C15.6972 37.5021 14.9351 36.8615 14.9351 35.6827C14.9351 34.5039 15.6972 33.7935 16.8109 33.7935C17.2586 33.7935 17.5405 33.8896 17.6629 33.9532L17.5514 34.3317C17.3748 34.2464 17.1254 34.1828 16.8264 34.1828C15.9853 34.1828 15.4245 34.721 15.4245 35.6656C15.4245 36.5451 15.9311 37.1112 16.8047 37.1112C17.0866 37.1112 17.3748 37.0523 17.5606 36.9623L17.6567 37.3299V37.3315Z" fill="white"/>
<path d="M19.0681 34.2481H17.9761V33.8525H20.6342V34.2481H19.5375V37.4495H19.0681V34.2481Z" fill="white"/>
<path d="M21.4988 33.8525V37.4479H21.0356V33.8525H21.4988Z" fill="white"/>
<path d="M25.3771 35.6129C25.3771 36.8506 24.6258 37.5067 23.7088 37.5067C22.7918 37.5067 22.0947 36.77 22.0947 35.6827C22.0947 34.5411 22.8026 33.7935 23.763 33.7935C24.7234 33.7935 25.3771 34.5457 25.3771 35.6129ZM22.5904 35.6718C22.5904 36.4396 23.0055 37.1283 23.7351 37.1283C24.4647 37.1283 24.8861 36.4504 24.8861 35.6346C24.8861 34.9195 24.5127 34.1735 23.7413 34.1735C22.9699 34.1735 22.5904 34.8823 22.5904 35.6718Z" fill="white"/>
<path d="M25.98 37.4479V33.8525H26.4865L27.6374 35.6719C27.9039 36.0938 28.1114 36.4723 28.2818 36.8399L28.2927 36.8353C28.2508 36.3544 28.24 35.917 28.24 35.3571V33.8525H28.6768V37.4479H28.2075L27.0674 35.6239C26.8165 35.2237 26.5779 34.8127 26.3967 34.4233L26.3812 34.428C26.4075 34.8809 26.4184 35.3137 26.4184 35.9108V37.4479H25.9815H25.98Z" fill="white"/>
<path d="M29.4854 33.9001C29.7193 33.8521 30.0554 33.8257 30.3745 33.8257C30.8702 33.8257 31.1893 33.9156 31.4139 34.1188C31.5951 34.2786 31.6958 34.5237 31.6958 34.8013C31.6958 35.2759 31.3968 35.5908 31.0189 35.7195V35.7351C31.2962 35.8312 31.4604 36.0872 31.5471 36.461C31.6648 36.962 31.75 37.3094 31.8244 37.4474H31.3442C31.2853 37.3466 31.2063 37.0364 31.1041 36.5881C30.9972 36.0918 30.8051 35.9057 30.3853 35.8886H29.9485V37.4459H29.4854V33.8986V33.9001ZM29.9485 35.5381H30.4225C30.9182 35.5381 31.2326 35.2666 31.2326 34.8556C31.2326 34.3918 30.8965 34.1886 30.407 34.184C30.184 34.184 30.0229 34.2057 29.9485 34.2274V35.5396V35.5381Z" fill="white"/>
<path d="M34.2114 35.7619H32.8158V37.0586H34.371V37.4479H32.3511V33.8525H34.2904V34.2419H32.8142V35.3788H34.2099V35.7635L34.2114 35.7619Z" fill="white"/>
<path d="M35.4383 33.8525V35.3571H37.1747V33.8525H37.6441V37.4479H37.1747V35.7619H35.4383V37.4479H34.9751V33.8525H35.4383Z" fill="white"/>
<path d="M39.0288 36.3172L38.6555 37.4479H38.1753L39.3959 33.8525H39.9551L41.1804 37.4479H40.6847L40.3006 36.3172H39.0273H39.0288ZM40.2061 35.9542L39.8544 34.9197C39.7739 34.6855 39.7212 34.4714 39.6685 34.2636H39.6577C39.605 34.4776 39.5462 34.6963 39.4765 34.915L39.1248 35.9558H40.2061V35.9542Z" fill="white"/>
<path d="M41.71 33.9001C41.9129 33.8583 42.232 33.8257 42.5573 33.8257C43.0204 33.8257 43.3194 33.9063 43.5425 34.0878C43.7283 34.2259 43.8414 34.4399 43.8414 34.7222C43.8414 35.0696 43.6122 35.3737 43.2342 35.5117V35.5226C43.575 35.6079 43.9746 35.8902 43.9746 36.4237C43.9746 36.7324 43.8523 36.9682 43.671 37.1434C43.4201 37.373 43.0158 37.48 42.4303 37.48C42.1112 37.48 41.8649 37.4583 41.7115 37.4366V33.9001H41.71ZM42.1731 35.3721H42.5945C43.0839 35.3721 43.3721 35.1162 43.3721 34.7687C43.3721 34.3468 43.053 34.1824 42.5836 34.1824C42.3698 34.1824 42.2475 34.1979 42.1731 34.215V35.3721ZM42.1731 37.0953C42.263 37.1109 42.3962 37.1171 42.5619 37.1171C43.0406 37.1171 43.4836 36.9402 43.4836 36.4175C43.4836 35.9274 43.0623 35.7242 42.5573 35.7242H42.1731V37.0953Z" fill="white"/>
<path d="M47.1069 37.3315C46.9365 37.4168 46.5957 37.5021 46.1589 37.5021C45.1458 37.5021 44.3853 36.8615 44.3853 35.6827C44.3853 34.5039 45.1474 33.7935 46.2611 33.7935C46.7088 33.7935 46.9907 33.8896 47.1131 33.9532L47.0015 34.3317C46.8265 34.2464 46.5756 34.1828 46.2766 34.1828C45.4355 34.1828 44.8747 34.721 44.8747 35.6656C44.8747 36.5451 45.3813 37.1112 46.2549 37.1112C46.5368 37.1112 46.825 37.0523 47.0108 36.9623L47.1069 37.3299V37.3315Z" fill="white"/>
<path d="M49.5479 35.7619H48.1522V37.0586H49.7074V37.4479H47.6875V33.8525H49.6269V34.2419H48.1507V35.3788H49.5463V35.7635L49.5479 35.7619Z" fill="white"/>
<path d="M50.3101 37.4479V33.8525H50.8166L51.9675 35.6719C52.2339 36.0938 52.4415 36.4723 52.6119 36.8399L52.6227 36.8353C52.5794 36.3544 52.5701 35.917 52.5701 35.3571V33.8525H53.0069V37.4479H52.5375L51.3975 35.6239C51.1465 35.2237 50.908 34.8127 50.7267 34.4233L50.7113 34.428C50.7376 34.8809 50.7484 35.3137 50.7484 35.9108V37.4479H50.3116H50.3101Z" fill="white"/>
<path d="M54.4973 34.2481H53.4053V33.8525H56.0634V34.2481H54.9667V37.4495H54.4973V34.2481Z" fill="white"/>
<path d="M58.3233 35.7619H56.9276V37.0586H58.4828V37.4479H56.4629V33.8525H58.4023V34.2419H56.926V35.3788H58.3217V35.7635L58.3233 35.7619Z" fill="white"/>
<path d="M59.0855 33.9001C59.3194 33.8521 59.6556 33.8257 59.9747 33.8257C60.4704 33.8257 60.7895 33.9156 61.0141 34.1188C61.1953 34.2786 61.296 34.5237 61.296 34.8013C61.296 35.2759 60.997 35.5908 60.6191 35.7195V35.7351C60.8963 35.8312 61.0605 36.0872 61.1457 36.461C61.2635 36.962 61.3487 37.3094 61.423 37.4474H60.9428C60.8839 37.3466 60.8049 37.0364 60.7027 36.5881C60.5958 36.0918 60.4037 35.9057 59.984 35.8886H59.5471V37.4459H59.084V33.8986L59.0855 33.9001ZM59.5487 35.5381H60.0227C60.5184 35.5381 60.8328 35.2666 60.8328 34.8556C60.8328 34.3918 60.4967 34.1886 60.0072 34.184C59.7841 34.184 59.623 34.2057 59.5487 34.2274V35.5396V35.5381Z" fill="white"/>
<path d="M61.8892 36.8832C62.0968 37.0119 62.4004 37.1174 62.721 37.1174C63.195 37.1174 63.4723 36.8661 63.4723 36.5032C63.4723 36.1666 63.2802 35.9743 62.7954 35.7881C62.2099 35.5803 61.8474 35.2763 61.8474 34.7691C61.8474 34.2091 62.3105 33.7935 63.0091 33.7935C63.3763 33.7935 63.6427 33.8788 63.8023 33.9703L63.6737 34.3487C63.556 34.2851 63.3174 34.1781 62.9921 34.1781C62.5026 34.1781 62.3152 34.4713 62.3152 34.7163C62.3152 35.0529 62.5336 35.2173 63.0293 35.4097C63.6365 35.6439 63.9463 35.937 63.9463 36.466C63.9463 37.0212 63.5358 37.5005 62.6885 37.5005C62.3415 37.5005 61.9636 37.3997 61.7715 37.271L61.8892 36.8816V36.8832Z" fill="white"/>
<path d="M64.4512 37.1701C64.4512 36.9731 64.5844 36.8335 64.7703 36.8335C64.9562 36.8335 65.0847 36.9715 65.0847 37.1701C65.0847 37.3686 64.9623 37.5067 64.7656 37.5067C64.5797 37.5067 64.4512 37.3624 64.4512 37.1701Z" fill="white"/>
<path d="M68.1923 37.3315C68.0219 37.4168 67.6812 37.5021 67.2443 37.5021C66.2313 37.5021 65.4707 36.8615 65.4707 35.6827C65.4707 34.5039 66.2328 33.7935 67.3466 33.7935C67.7942 33.7935 68.0762 33.8896 68.1985 33.9532L68.087 34.3317C67.912 34.2464 67.661 34.1828 67.3621 34.1828C66.5209 34.1828 65.9602 34.721 65.9602 35.6656C65.9602 36.5451 66.4667 37.1112 67.3404 37.1112C67.6223 37.1112 67.9104 37.0523 68.0963 36.9623L68.1923 37.3299V37.3315Z" fill="white"/>
<path d="M71.7296 35.6129C71.7296 36.8506 70.9784 37.5067 70.0613 37.5067C69.1443 37.5067 68.4473 36.77 68.4473 35.6827C68.4473 34.5411 69.1552 33.7935 70.114 33.7935C71.0729 33.7935 71.7281 34.5457 71.7281 35.6129H71.7296ZM68.9429 35.6718C68.9429 36.4396 69.3581 37.1283 70.0877 37.1283C70.8173 37.1283 71.2386 36.4504 71.2386 35.6346C71.2386 34.9195 70.8653 34.1735 70.0923 34.1735C69.3194 34.1735 68.9414 34.8823 68.9414 35.6718H68.9429Z" fill="white"/>
<path d="M75.358 35.8689C75.3317 35.3679 75.2991 34.7646 75.3053 34.3163H75.2898C75.1675 34.7382 75.0188 35.1865 74.8375 35.6813L74.204 37.4262H73.8524L73.2715 35.7138C73.1011 35.2066 72.957 34.7429 72.8563 34.3163H72.8455C72.8347 34.7646 72.8083 35.3679 72.7758 35.9062L72.6798 37.4479H72.2383L72.4892 33.8525H73.0809L73.6944 35.5913C73.8431 36.0334 73.9654 36.4289 74.0568 36.8027H74.0723C74.1622 36.4397 74.2907 36.0458 74.4503 35.5913L75.09 33.8525H75.6817L75.9048 37.4479H75.4525L75.3627 35.8689H75.358Z" fill="white"/>
<path d="M28.3204 60.2965C28.0416 60.4361 27.484 60.5757 26.7699 60.5757C25.1155 60.5757 23.8701 59.5287 23.8701 57.6023C23.8701 55.6758 25.1155 54.5156 26.9356 54.5156C27.6668 54.5156 28.1284 54.6723 28.3282 54.7778L28.1454 55.3966C27.8588 55.257 27.4484 55.1531 26.9604 55.1531C25.5849 55.1531 24.671 56.0341 24.671 57.5774C24.671 59.0168 25.4981 59.9397 26.9263 59.9397C27.3879 59.9397 27.8588 59.8436 28.1624 59.6962L28.3189 60.298L28.3204 60.2965Z" fill="white"/>
<path d="M29.5755 58.5177C29.5925 59.5553 30.2539 59.9819 31.0207 59.9819C31.569 59.9819 31.9005 59.8857 32.1871 59.7632L32.3172 60.3123C32.0477 60.4348 31.5861 60.5744 30.9154 60.5744C29.6173 60.5744 28.8428 59.7198 28.8428 58.4463C28.8428 57.1729 29.591 56.1709 30.8193 56.1709C32.1949 56.1709 32.5604 57.3823 32.5604 58.1594C32.5604 58.316 32.5434 58.4386 32.5341 58.5161H29.5739L29.5755 58.5177ZM31.8215 57.9686C31.8308 57.48 31.6217 56.7215 30.7589 56.7215C29.9844 56.7215 29.6436 57.4366 29.5832 57.9686H31.8215Z" fill="white"/>
<path d="M33.5111 57.5854C33.5111 57.0891 33.5018 56.661 33.4771 56.2685H34.1478L34.1741 57.0968H34.2082C34.4003 56.5307 34.8619 56.1724 35.3746 56.1724C35.4613 56.1724 35.5233 56.1817 35.593 56.1987V56.9231C35.514 56.906 35.4366 56.8967 35.3312 56.8967C34.7906 56.8967 34.408 57.3062 34.3042 57.8817C34.2872 57.9856 34.2702 58.1081 34.2702 58.2384V60.4875H33.5127V57.5838L33.5111 57.5854Z" fill="white"/>
<path d="M37.4907 55.0572V56.2686H38.5874V56.8534H37.4907V59.1288C37.4907 59.6515 37.6394 59.9477 38.0654 59.9477C38.2652 59.9477 38.4139 59.9214 38.51 59.895L38.5441 60.4705C38.3954 60.531 38.1615 60.5744 37.8656 60.5744C37.5093 60.5744 37.2212 60.4612 37.0384 60.2518C36.82 60.0253 36.7426 59.6499 36.7426 59.1536V56.8518H36.0889V56.2671H36.7426V55.2557L37.4907 55.0557V55.0572Z" fill="white"/>
<path d="M40.3021 55.0823C40.3114 55.3444 40.1193 55.5538 39.8141 55.5538C39.5446 55.5538 39.3525 55.3444 39.3525 55.0823C39.3525 54.8202 39.5524 54.603 39.8312 54.603C40.11 54.603 40.3021 54.8124 40.3021 55.0823ZM39.4486 60.4878V56.2673H40.2153V60.4878H39.4486Z" fill="white"/>
<path d="M41.5658 60.4891V56.8534H40.9741V56.2687H41.5658V56.0422C41.5658 54.9254 42.2195 54.2026 43.403 54.2026C43.7949 54.2026 44.2565 54.3252 44.4734 54.4818L44.2549 55.0666C44.0722 54.9363 43.7407 54.8231 43.3674 54.8231C42.5572 54.8231 42.3218 55.3892 42.3218 56.0608V56.2702H44.7692V60.4907H44.0118V56.855H42.3218V60.4907H41.5643L41.5658 60.4891Z" fill="white"/>
<path d="M46.4685 58.5177C46.4856 59.5553 47.147 59.9819 47.9138 59.9819C48.4621 59.9819 48.7936 59.8857 49.0802 59.7632L49.2103 60.3123C48.9408 60.4348 48.4792 60.5744 47.8084 60.5744C46.5104 60.5744 45.7358 59.7198 45.7358 58.4463C45.7358 57.1729 46.484 56.1709 47.7124 56.1709C49.0879 56.1709 49.4535 57.3823 49.4535 58.1594C49.4535 58.316 49.4364 58.4386 49.4272 58.5161H46.467L46.4685 58.5177ZM48.7146 57.9686C48.7239 57.48 48.5148 56.7215 47.652 56.7215C46.8775 56.7215 46.5367 57.4366 46.4763 57.9686H48.7146Z" fill="white"/>
<path d="M54.0436 54.2984V59.3984C54.0436 59.7737 54.0529 60.2003 54.0776 60.4888H53.3899L53.3558 59.7567H53.3388C53.1033 60.2282 52.5906 60.5849 51.9013 60.5849C50.882 60.5849 50.0982 59.721 50.0982 58.4398C50.0889 57.0361 50.961 56.1721 51.988 56.1721C52.6324 56.1721 53.0677 56.4777 53.2598 56.8174H53.2768V54.2969H54.0436V54.2984ZM53.2768 57.9869C53.2768 57.8907 53.2675 57.7604 53.2412 57.6643C53.1281 57.1757 52.7099 56.7755 52.1352 56.7755C51.3421 56.7755 50.8727 57.4735 50.8727 58.4057C50.8727 59.2603 51.291 59.9661 52.1181 59.9661C52.6324 59.9661 53.1018 59.6264 53.2412 59.0509C53.2675 58.947 53.2768 58.8415 53.2768 58.719V57.9869Z" fill="white"/>
<path fill-rule="evenodd" clip-rule="evenodd" d="M29.0413 16.9204C28.809 17.0507 28.527 17.0507 28.2931 16.9204L27.2847 16.3357C27.0787 16.2023 26.9486 15.9805 26.9331 15.7339V14.5426C26.9455 14.2945 27.0756 14.068 27.2847 13.9346L28.2839 13.3545C28.5209 13.2165 28.8136 13.2165 29.0506 13.3545L30.0497 13.9346C30.2573 14.068 30.389 14.296 30.4014 14.5426V15.7339C30.389 15.982 30.2589 16.2085 30.0497 16.3419L29.0413 16.9204Z" fill="white"/>
<path fill-rule="evenodd" clip-rule="evenodd" d="M25.1341 16.9206C24.9017 17.0509 24.6198 17.0509 24.3859 16.9206L23.3775 16.3436C23.1699 16.2103 23.0383 15.9822 23.0259 15.7356V14.5444C23.0383 14.2962 23.1684 14.0698 23.3775 13.9364L24.3766 13.3563C24.6121 13.2198 24.9048 13.2198 25.1418 13.3563L26.141 13.9364C26.3501 14.0698 26.4817 14.2962 26.4926 14.5444V15.7356C26.4817 15.9838 26.3516 16.2118 26.141 16.3436L25.1341 16.9222V16.9206Z" fill="white"/>
<path fill-rule="evenodd" clip-rule="evenodd" d="M23.181 20.3156C22.9486 20.4459 22.6667 20.4459 22.4328 20.3156L21.4244 19.7309C21.2153 19.5959 21.0851 19.3679 21.0728 19.1197V17.9316C21.0851 17.6834 21.2153 17.457 21.4244 17.3205L22.4235 16.7435C22.659 16.607 22.9517 16.607 23.1887 16.7435L24.1878 17.3205C24.397 17.4539 24.5286 17.6819 24.5395 17.9316V19.1197C24.5286 19.3679 24.397 19.5944 24.1878 19.7278L23.181 20.3156Z" fill="white"/>
<path fill-rule="evenodd" clip-rule="evenodd" d="M25.1341 23.6997C24.9017 23.8316 24.6183 23.8316 24.3859 23.6997L23.3775 23.1181C23.1699 22.9831 23.0398 22.7567 23.0259 22.51V21.3188C23.0383 21.0706 23.1684 20.8426 23.3775 20.7077L24.3766 20.1307C24.6121 19.9942 24.9048 19.9942 25.1418 20.1307L26.141 20.7077C26.3516 20.8411 26.4833 21.0691 26.4926 21.3188V22.5116C26.4817 22.7598 26.3501 22.9862 26.141 23.1196L25.1341 23.6997Z" fill="white"/>
<path fill-rule="evenodd" clip-rule="evenodd" d="M29.6325 18.666C29.631 18.5884 29.569 18.5279 29.4931 18.5264H28.8069C28.7294 18.5279 28.669 18.59 28.6675 18.666V23.6728C28.6675 23.7426 28.7248 23.8 28.7945 23.8H31.1072C31.1784 23.8 31.2373 23.7442 31.2389 23.6728V23.0927C31.2342 23.0229 31.1769 22.9686 31.1072 22.9686H29.6418V18.666" fill="white"/>
<path fill-rule="evenodd" clip-rule="evenodd" d="M33.8087 21.451H32.3433V21.4216C32.3433 20.874 32.6562 20.5685 33.076 20.5685C33.4958 20.5685 33.8087 20.8818 33.8087 21.4216V21.451ZM34.7319 21.9396V21.5379C34.7319 20.5033 34.1479 19.7759 33.0822 19.7759C32.0165 19.7759 31.417 20.4552 31.417 21.5379V22.0513C31.417 23.4178 32.3944 23.7916 33.0977 23.7916C33.5484 23.8025 33.9992 23.7621 34.4407 23.6753C34.5646 23.6551 34.5878 23.607 34.5878 23.4938V23.03C34.5878 22.9587 34.5321 22.9246 34.4639 22.9246H34.4422C34.151 22.954 33.6739 22.9959 33.1674 22.9959C32.5013 22.9959 32.334 22.5073 32.334 22.1133V22.0932H34.594C34.6901 22.0932 34.7334 22.0296 34.7334 21.9195" fill="white"/>
<path fill-rule="evenodd" clip-rule="evenodd" d="M37.7369 24.0613C37.7369 24.3048 37.6208 24.4568 36.9531 24.4568C36.2855 24.4568 36.1275 24.2831 36.1275 23.9992V23.9356C36.1182 23.7557 36.1817 23.5804 36.301 23.447L36.9191 23.5944C37.6517 23.7681 37.7369 23.8581 37.7369 24.0101V24.0613ZM37.661 21.1732C37.661 21.5206 37.4922 21.7207 36.9283 21.7207C36.284 21.7207 36.1786 21.4291 36.1786 21.1732V21.1173C36.1786 20.7916 36.3366 20.5279 36.9283 20.5279C37.5201 20.5279 37.661 20.7714 37.661 21.1173V21.1732ZM38.7283 20.3046V20.013C38.7299 19.9106 38.6478 19.8253 38.5455 19.8237H36.9191C35.7186 19.8237 35.2693 20.4085 35.2693 21.1018V21.1483C35.2461 21.4477 35.3483 21.7424 35.5528 21.9627C35.3762 22.0945 35.2724 22.3039 35.2771 22.5257C35.2771 22.7754 35.3917 23.0112 35.59 23.1647C35.3685 23.3586 35.2399 23.6394 35.2368 23.9341V24.007C35.2368 24.7406 35.8332 25.1579 36.9454 25.1579C38.1257 25.1579 38.654 24.7763 38.654 24.0675V24.0054C38.654 23.2718 38.0436 23.1182 37.1003 22.8964L36.2809 22.7041C36.1229 22.6669 36.0377 22.6141 36.0377 22.4745C36.0454 22.397 36.0934 22.3287 36.1647 22.2961C36.4079 22.3815 36.6635 22.4218 36.9222 22.4125C37.9693 22.4125 38.5657 22.017 38.5657 21.1483V21.1018C38.5719 20.9017 38.5099 20.7063 38.3922 20.545L38.6214 20.455C38.702 20.4209 38.7299 20.4085 38.7299 20.3046" fill="white"/>
<path fill-rule="evenodd" clip-rule="evenodd" d="M40.141 19.2802V18.666C40.1394 18.5884 40.0775 18.5279 40.0016 18.5264H39.3293C39.2503 18.5264 39.1868 18.5884 39.1821 18.666V19.2802C39.1868 19.3593 39.2503 19.4198 39.3293 19.4198H40.0016C40.0775 19.4182 40.1394 19.3562 40.141 19.2802ZM40.1193 23.5968V19.9658C40.1193 19.8882 40.0573 19.8262 39.9799 19.8262H39.3417C39.2642 19.8277 39.2038 19.8898 39.2023 19.9658V23.5968C39.2023 23.6759 39.2642 23.7395 39.3417 23.7442H39.9799C40.0573 23.7411 40.1193 23.6759 40.1193 23.5968Z" fill="white"/>
<path fill-rule="evenodd" clip-rule="evenodd" d="M42.6504 23.6226V23.1867C42.6504 23.1154 42.5962 23.0812 42.5064 23.0812H42.1377C41.8945 23.0812 41.8666 23.0393 41.8666 22.6935V20.5126H42.4909C42.5683 20.5126 42.6303 20.4506 42.6303 20.3731V19.9651C42.6288 19.8876 42.5668 19.8271 42.4909 19.8255H41.8666V18.9817C41.8697 18.9181 41.8202 18.8654 41.7567 18.8623C41.7458 18.8623 41.7365 18.8623 41.7272 18.8654L41.0952 18.9724C41.0162 18.9879 40.9574 19.0546 40.9512 19.1368V19.2516V20.0535V22.6919C40.9512 23.621 41.2687 23.7947 42.0525 23.7947C42.2105 23.7916 42.3685 23.7761 42.5234 23.7482C42.6133 23.7342 42.6551 23.6924 42.6551 23.621" fill="white"/>
<path fill-rule="evenodd" clip-rule="evenodd" d="M46.6561 22.3481C46.6561 21.8006 46.4563 21.3554 45.6942 20.9335L44.8608 20.4666C44.4085 20.2231 44.2923 20.0789 44.2923 19.8509C44.2923 19.5376 44.5077 19.3623 45.025 19.3623C45.4773 19.3623 45.9343 19.3902 46.3897 19.4336H46.4037C46.4703 19.4336 46.5229 19.3793 46.5245 19.3142V18.793C46.5198 18.7232 46.4656 18.669 46.3975 18.6612C45.9591 18.5805 45.513 18.5387 45.0668 18.5371C43.7781 18.5371 43.3335 19.0924 43.3335 19.8571C43.3335 20.3457 43.507 20.7443 44.1514 21.1259L45.0668 21.6749C45.5269 21.9433 45.6555 22.0829 45.6555 22.3543C45.6555 22.7576 45.4696 22.9778 44.8531 22.9778C44.5959 22.9778 43.9035 22.9437 43.6325 22.9096C43.5597 22.9096 43.5008 22.9685 43.5008 23.0414V23.5424C43.5039 23.6153 43.5612 23.6727 43.6325 23.6789C44.0337 23.7689 44.4426 23.8108 44.8531 23.803C46.2395 23.803 46.6778 23.0538 46.6778 22.3528" fill="white"/>
<path fill-rule="evenodd" clip-rule="evenodd" d="M49.7112 23.5201V23.0749C49.7112 23.0067 49.657 22.9694 49.5873 22.9694H49.5656C49.2666 23.0144 48.9661 23.0346 48.6641 23.0315C48.3388 23.0315 47.9995 22.8453 47.9995 22.121V21.4633C47.9995 20.7297 48.3388 20.5529 48.6641 20.5529C48.963 20.5466 49.262 20.5637 49.5578 20.6009H49.5795C49.6508 20.6009 49.7035 20.5668 49.7035 20.4986V20.0457C49.7035 19.9324 49.6756 19.8921 49.5563 19.8642C49.2635 19.799 48.963 19.768 48.6625 19.7742C47.761 19.7742 47.0825 20.3295 47.0825 21.4602V22.1055C47.0825 23.2378 47.761 23.7915 48.6625 23.7915C48.963 23.7977 49.2635 23.7682 49.5563 23.7015C49.6756 23.6736 49.7035 23.6333 49.7035 23.5232" fill="white"/>
<path fill-rule="evenodd" clip-rule="evenodd" d="M52.2953 20.4148V19.9262C52.2938 19.8487 52.2318 19.7882 52.1559 19.7866C51.7981 19.7851 51.448 19.903 51.1645 20.1217V19.9743C51.1645 19.8968 51.1026 19.8347 51.0251 19.8347H50.421C50.3451 19.8363 50.2847 19.8983 50.2847 19.9743V23.5945C50.2831 23.6721 50.3436 23.7372 50.421 23.7419H51.0608C51.1382 23.7372 51.1986 23.6721 51.1971 23.5945V20.8057C51.4898 20.6428 51.8198 20.5591 52.1544 20.5622C52.2318 20.5622 52.2938 20.5001 52.2938 20.4226" fill="white"/>
<path fill-rule="evenodd" clip-rule="evenodd" d="M56.6106 22.0533C56.6106 22.6225 56.4666 23.0459 55.878 23.0459C55.6549 23.0428 55.4318 23.0258 55.2119 22.9979V20.5875C55.4334 20.5518 55.6549 20.5348 55.878 20.5394C56.4743 20.5394 56.6106 20.9629 56.6106 21.5321V22.0548V22.0533ZM57.5261 22.0533V21.5212C57.5261 20.4386 56.9871 19.7778 55.8702 19.7778C55.3993 19.7825 54.9315 19.843 54.4761 19.9593C54.315 20.0012 54.2871 20.0415 54.2871 20.1485V24.9894C54.2871 25.067 54.3491 25.129 54.4265 25.129H55.0647C55.1422 25.1275 55.2026 25.0654 55.2041 24.9894V23.7672C55.4256 23.7967 55.6471 23.8122 55.8702 23.8137C56.9855 23.8137 57.5261 23.1561 57.5261 22.0734" fill="white"/>
<path fill-rule="evenodd" clip-rule="evenodd" d="M53.65 19.2802V18.666C53.65 18.59 53.5896 18.5279 53.5137 18.5264H52.8399C52.7624 18.5264 52.6989 18.5884 52.6958 18.666V19.2802C52.6989 19.3577 52.7624 19.4198 52.8399 19.4198H53.5137C53.588 19.4182 53.65 19.3562 53.65 19.2802ZM53.6299 23.5968V19.9658C53.6283 19.8882 53.5664 19.8277 53.4904 19.8262H52.8523C52.7748 19.8277 52.7144 19.8898 52.7128 19.9658V23.5968C52.7128 23.6759 52.7748 23.7395 52.8523 23.7442H53.4904C53.5679 23.7411 53.6299 23.6759 53.6299 23.5968Z" fill="white"/>
<path fill-rule="evenodd" clip-rule="evenodd" d="M59.6501 23.6226V23.1867C59.6501 23.1154 59.5943 23.0812 59.5029 23.0812H59.1358C58.8926 23.0812 58.8647 23.0393 58.8647 22.6935V20.5126H59.489C59.5649 20.5126 59.6253 20.4506 59.6253 20.3762V19.9651C59.6253 19.8891 59.5649 19.8271 59.489 19.8255H58.8647V18.9817C58.8678 18.9181 58.8182 18.8654 58.7547 18.8623C58.7439 18.8623 58.7346 18.8623 58.7253 18.8654L58.0871 18.9724C58.0065 18.9879 57.9477 19.0546 57.9399 19.1368V19.2516V20.0535V22.6919C57.9399 23.621 58.259 23.7947 59.0444 23.7947C59.2024 23.7916 59.3604 23.7761 59.5153 23.7482C59.6067 23.7327 59.6485 23.6908 59.6485 23.6195" fill="white"/>
</g>
<defs>
<clipPath id="clip0_1141_423">
<rect width="79" height="77" fill="white"/>
</clipPath>
</defs>
</svg>
