<svg width="105" height="38" viewBox="0 0 105 38" fill="none" xmlns="http://www.w3.org/2000/svg">
<g clip-path="url(#clip0_1638_9969)">
<path d="M104.458 26.9524C103.694 28.5204 102.904 30.0406 101.816 31.3957C100.132 33.4923 98.0826 35.155 95.5672 36.2557C94.273 36.8223 92.9236 37.2246 91.5265 37.4772C89.8732 37.7768 88.2021 37.8959 86.5245 37.8309C83.7949 37.7262 81.1392 37.2526 78.6031 36.2295C76.6861 35.4564 74.9515 34.4198 73.3879 33.0891C70.4993 30.6306 68.7572 27.538 67.8034 23.9816C67.1909 21.6964 67.1198 19.3615 67.2722 17.0375C67.4256 14.6855 68.0549 12.4229 69.0929 10.2595C70.1365 8.08342 71.5775 6.20869 73.4048 4.61725C75.8239 2.51157 78.691 1.21514 81.8442 0.495204C84.0203 -9.15517e-05 86.244 -0.0794831 88.4546 0.0630608C90.798 0.213724 93.0882 0.708117 95.2651 1.60578C96.6687 2.18498 98.0219 2.84447 99.0814 3.93881C100.12 5.0106 100.55 6.24749 100.045 7.69548C99.7855 8.44248 99.0094 8.91703 98.2023 8.98289C96.8689 9.09205 96.0759 8.34775 95.3783 7.43295C94.2917 6.00841 93.2742 4.53425 91.9155 3.31902C90.8495 2.36542 89.588 1.81328 88.204 1.4867C87.0398 1.21243 85.8494 1.06538 84.6543 1.13214C82.6485 1.24401 80.6847 1.5724 78.8687 2.47097C78.0243 2.88868 77.2846 3.43991 76.5795 4.05339C75.1011 5.33899 73.9771 6.87179 73.1168 8.58503C72.3453 10.1214 71.8216 11.7372 71.5298 13.4324C71.3017 14.7613 71.1885 16.0938 71.2783 17.4273C71.427 19.6538 71.9226 21.8136 72.8502 23.8733C73.5572 25.444 74.411 26.9344 75.4798 28.2967C76.832 30.0208 78.4488 31.4823 80.3808 32.5974C82.107 33.5934 83.9745 34.2411 85.9466 34.5786C87.4026 34.8285 88.882 34.9385 90.3623 34.8564C92.8862 34.7157 95.295 34.1437 97.5104 32.9303C98.6091 32.3285 99.6191 31.6077 100.576 30.8075C101.163 30.3167 101.717 29.797 102.248 29.2557C102.941 28.5484 103.615 27.8221 104.201 27.0255C104.246 26.9651 104.303 26.9109 104.458 26.9543V26.9524Z" fill="#1F3028"/>
<path d="M48.8891 23.4361C51.24 24.5819 53.416 25.9442 55.4331 27.5528C56.3112 28.2538 57.1584 28.9818 57.9822 29.7415C59.8132 31.4303 61.7087 33.0443 64.0456 34.0809C65.4277 34.6935 66.8537 35.0968 68.3939 35.0454C68.7146 35.0345 69.0195 34.8586 69.3786 34.9876C69.2691 35.445 68.9391 35.7779 68.5753 36.0432C67.2736 36.9932 65.8045 37.5363 64.1802 37.7582C62.0575 38.0487 60.1938 37.4109 58.4339 36.3842C56.6039 35.3169 55.0646 33.8978 53.6302 32.3885C51.9423 30.613 50.3909 28.7157 48.5599 27.0674C46.5887 25.2928 44.293 24.1254 41.6213 23.6689C40.8068 23.53 39.9923 23.4208 39.1657 23.4055C39.017 23.4028 38.9113 23.3766 38.8318 23.2305C38.6598 22.912 38.4615 22.6061 38.2362 22.2308H38.7776C41.9701 22.2308 45.1626 22.2335 48.3551 22.2308C51.0156 22.2281 53.4431 21.4893 55.5481 19.924C57.0321 18.8197 58.058 17.3492 58.7378 15.6585C59.4672 13.8415 59.6308 11.9415 59.4681 10.0343C59.2858 7.89886 58.5321 5.94925 56.8778 4.42998C55.7286 3.37534 54.3437 2.71855 52.825 2.29002C50.9052 1.74871 48.9443 1.65399 46.9618 1.6603C42.5237 1.67383 38.0847 1.65308 33.6466 1.68015C33.1201 1.68376 32.8639 1.51956 32.6497 1.08832C32.3468 0.478449 32.3187 0.491079 33.0285 0.491079C37.6068 0.491079 42.1852 0.506416 46.7636 0.481155C48.083 0.473938 49.4025 0.50822 50.7116 0.601145C53.6853 0.811352 56.5917 1.36529 59.2474 2.76186C61.8331 4.12144 63.6304 6.12427 64.3158 8.93185C64.6169 10.1633 64.5991 11.4273 64.4514 12.693C64.2354 14.5398 63.5322 16.1808 62.4007 17.6694C61.6488 18.6582 60.753 19.5036 59.7346 20.2325C58.3656 21.2123 56.8563 21.9223 55.2367 22.4203C53.9808 22.8064 52.7053 23.096 51.3905 23.2305C50.5573 23.3162 49.727 23.4244 48.8863 23.4352L48.8891 23.4361Z" fill="#1F3028"/>
<path d="M4.43459 37.2936H0.0236156C-0.0352971 37.2196 0.0292263 37.1817 0.0685015 37.1466C1.74705 35.6607 2.8907 33.8229 3.89409 31.8733C4.93581 29.8516 6.02804 27.8514 7.1586 25.8748C8.25082 23.9648 9.92376 22.7839 12.1793 22.4059C12.7544 22.3094 13.3332 22.2426 13.9093 22.2408C18.6746 22.2273 23.4391 22.2327 28.2045 22.2327H28.7814C28.254 21.3783 27.7593 20.5709 27.26 19.7661C26.2837 18.1927 25.3093 16.6193 24.3265 15.0495C23.1726 13.2046 21.9906 11.3768 20.8619 9.51738C20.3223 8.62874 19.6846 7.79242 19.2731 6.83341C18.8364 5.81575 18.7859 4.79088 19.2039 3.75337C19.6631 2.61212 20.3953 1.6071 20.9189 0.405396C21.638 1.56469 22.301 2.63919 22.9706 3.71007C24.219 5.70388 25.4767 7.69138 26.7214 9.68699C27.7874 11.3948 28.8357 13.1135 29.8998 14.8222C31.1351 16.8061 32.3826 18.7827 33.6207 20.7648C34.7503 22.5719 35.8725 24.3835 37.003 26.1896C38.3449 28.3323 39.6812 30.4795 41.0409 32.6113C42.1023 34.274 43.3694 35.7834 44.8076 37.1583C44.8356 37.1844 44.8525 37.2205 44.8945 37.2801H36.3185C37.0376 36.2263 36.4925 35.2646 36.066 34.3191C35.0037 31.9617 33.5094 29.8362 32.1479 27.6403C31.3194 26.3042 30.4871 24.969 29.6707 23.6256C29.5595 23.4434 29.437 23.4019 29.2387 23.4019C23.9599 23.4064 18.6802 23.3613 13.4015 23.4271C11.3657 23.4524 9.71803 24.3943 8.66041 26.1102C7.97496 27.2226 7.42324 28.4117 6.77146 29.5448C6.0243 30.8458 5.33979 32.1765 4.75534 33.5487C4.39625 34.3931 4.0222 35.2457 4.05493 36.2038C4.06896 36.6062 4.22886 36.9318 4.43365 37.2927L4.43459 37.2936Z" fill="#1F3028"/>
<path d="M15.3845 18.9793C15.0124 17.829 14.9525 16.6787 14.1689 15.7847C13.3693 14.8726 12.2004 14.7075 11.0353 14.3493C12.2089 14.0083 13.3721 13.8279 14.1605 12.932C14.9375 12.047 15.0516 10.9174 15.3303 9.82581C15.5538 9.97827 15.5108 10.2336 15.5566 10.4357C15.7165 11.1448 15.9054 11.8386 16.2589 12.4872C16.8069 13.4932 17.8074 13.8143 18.8286 14.112C19.0904 14.1887 19.3579 14.2465 19.717 14.3367C18.5611 14.7165 17.3791 14.85 16.5843 15.7802C15.8119 16.6842 15.6997 17.811 15.3855 18.9802L15.3845 18.9793Z" fill="#1F3028"/>
<path d="M11.0041 7.60596C11.1846 8.9899 11.842 9.88576 13.3644 10.1212C11.827 10.3188 11.1818 11.2435 11.006 12.6067C10.8227 12.0014 10.7086 11.4041 10.329 10.9169C9.91844 10.3919 9.2358 10.3522 8.63171 10.0942C10.1569 9.91553 10.8059 8.98539 11.0041 7.60596Z" fill="#1F3028"/>
</g>
<defs>
<clipPath id="clip0_1638_9969">
<rect width="104.459" height="38" fill="white"/>
</clipPath>
</defs>
</svg>
