<svg width="88" height="33" viewBox="0 0 88 33" fill="none" xmlns="http://www.w3.org/2000/svg">
<g clip-path="url(#clip0_1141_121)">
<path d="M87.0484 23.406C86.4117 24.7677 85.7532 26.0879 84.8462 27.2646C83.4427 29.0854 81.7353 30.5293 79.6391 31.4852C78.5606 31.9772 77.4361 32.3266 76.2719 32.546C74.8941 32.8061 73.5016 32.9095 72.1036 32.8531C69.8289 32.7622 67.6158 32.3509 65.5024 31.4625C63.9049 30.791 62.4594 29.8908 61.1564 28.7352C58.7493 26.6002 57.2975 23.9145 56.5026 20.8261C55.9922 18.8415 55.933 16.8139 56.06 14.7957C56.1878 12.7532 56.7123 10.7883 57.5772 8.9095C58.4469 7.01978 59.6478 5.39173 61.1705 4.00969C63.1864 2.18107 65.5756 1.05522 68.2033 0.430013C70.0167 -0.000111629 71.8698 -0.069057 73.712 0.0547312C75.6648 0.185571 77.5733 0.614912 79.3874 1.39446C80.5571 1.89745 81.6847 2.47017 82.5676 3.42052C83.4334 4.35128 83.7918 5.42542 83.371 6.68288C83.1544 7.3316 82.5076 7.7437 81.8351 7.80089C80.7238 7.89569 80.063 7.24933 79.4817 6.45489C78.5762 5.2178 77.7283 3.93761 76.5961 2.88227C75.7077 2.05415 74.6565 1.57466 73.5031 1.29105C72.533 1.05287 71.5409 0.925166 70.545 0.983143C68.8735 1.08029 67.237 1.36548 65.7237 2.14581C65.02 2.50856 64.4036 2.98726 63.8161 3.52002C62.584 4.63646 61.6474 5.96758 60.9304 7.45538C60.2875 8.78963 59.8512 10.1928 59.608 11.665C59.4179 12.819 59.3236 13.9762 59.3984 15.1342C59.5223 17.0678 59.9353 18.9434 60.7083 20.7321C61.2975 22.0961 62.0089 23.3904 62.8996 24.5734C64.0265 26.0706 65.3738 27.3398 66.9838 28.3082C68.4223 29.1732 69.9785 29.7357 71.622 30.0287C72.8353 30.2457 74.0681 30.3413 75.3017 30.27C77.4049 30.1478 79.4123 29.6511 81.2584 28.5973C82.1741 28.0747 83.0157 27.4487 83.8129 26.7538C84.3022 26.3276 84.7643 25.8763 85.2062 25.4062C85.7836 24.792 86.3455 24.1613 86.8341 23.4695C86.8715 23.417 86.919 23.37 87.0484 23.4076V23.406Z" fill="white"/>
<path d="M40.7407 20.3524C42.6998 21.3474 44.5132 22.5304 46.1941 23.9274C46.9258 24.5361 47.6318 25.1684 48.3183 25.8281C49.8442 27.2947 51.4237 28.6964 53.3711 29.5966C54.5229 30.1285 55.7113 30.4787 56.9947 30.4341C57.262 30.4247 57.516 30.2719 57.8153 30.3839C57.7241 30.7812 57.449 31.0703 57.1459 31.3006C56.0611 32.1256 54.8369 32.5972 53.4833 32.79C51.7144 33.0423 50.1613 32.4883 48.6947 31.5968C47.1697 30.6699 45.887 29.4375 44.6916 28.1268C43.2851 26.5849 41.9922 24.9373 40.4664 23.5059C38.8237 21.9648 36.9106 20.951 34.6843 20.5545C34.0055 20.4339 33.3268 20.3391 32.6379 20.3258C32.514 20.3234 32.426 20.3007 32.3597 20.1738C32.2163 19.8972 32.0511 19.6316 31.8633 19.3057H32.3145C34.9749 19.3057 37.6354 19.308 40.2958 19.3057C42.5128 19.3033 44.5358 18.6617 46.2899 17.3024C47.5266 16.3434 48.3815 15.0663 48.948 13.5981C49.5558 12.0202 49.6922 10.3702 49.5566 8.71396C49.4046 6.85949 48.7766 5.16641 47.398 3.84705C46.4403 2.93117 45.2862 2.3608 44.0207 1.98866C42.4208 1.51857 40.7867 1.43631 39.1347 1.44179C35.4363 1.45355 31.7371 1.43553 28.0387 1.45903C27.6 1.46217 27.3864 1.31957 27.208 0.945075C26.9555 0.41545 26.9321 0.426418 27.5236 0.426418C31.3389 0.426418 35.1542 0.439737 38.9695 0.4178C40.069 0.411532 41.1686 0.441304 42.2595 0.522002C44.7376 0.70455 47.1596 1.1856 49.3727 2.39841C51.5274 3.5791 53.0251 5.3184 53.5963 7.75656C53.8473 8.826 53.8324 9.92364 53.7093 11.0228C53.5293 12.6266 52.9433 14.0517 52.0004 15.3445C51.3739 16.2031 50.6273 16.9373 49.7787 17.5703C48.6378 18.4211 47.3801 19.0377 46.0304 19.4702C44.9839 19.8055 43.9209 20.057 42.8253 20.1738C42.131 20.2482 41.439 20.3422 40.7384 20.3516L40.7407 20.3524Z" fill="white"/>
<path d="M3.69559 32.3866H0.0197814C-0.0293125 32.3223 0.024457 32.2894 0.0571862 32.2588C1.45597 30.9685 2.40902 29.3725 3.24517 27.6795C4.11327 25.9237 5.02346 24.1868 5.96559 22.4702C6.87578 20.8116 8.26989 19.786 10.1495 19.4577C10.6287 19.3739 11.1111 19.3159 11.5911 19.3144C15.5623 19.3026 19.5326 19.3073 23.5038 19.3073H23.9846C23.5451 18.5654 23.1329 17.8642 22.7167 17.1653C21.9032 15.7989 21.0912 14.4326 20.2722 13.0693C19.3106 11.4671 18.3256 9.87982 17.385 8.26509C16.9353 7.49338 16.4039 6.7671 16.061 5.93427C15.6971 5.05052 15.655 4.1605 16.0033 3.25951C16.386 2.26842 16.9961 1.39563 17.4325 0.352051C18.0318 1.35881 18.5843 2.29192 19.1422 3.2219C20.1826 4.95337 21.2307 6.67935 22.2679 8.41239C23.1562 9.89549 24.0298 11.388 24.9166 12.8719C25.946 14.5947 26.9856 16.3113 28.0173 18.0326C28.9587 19.6019 29.8938 21.1751 30.8359 22.7436C31.9542 24.6044 33.0677 26.469 34.2008 28.3203C35.0853 29.7643 36.1412 31.075 37.3397 32.269C37.3631 32.2918 37.3771 32.3231 37.4122 32.3748H30.2655C30.8648 31.4597 30.4104 30.6245 30.0551 29.8035C29.1698 27.7562 27.9246 25.9104 26.79 24.0034C26.0995 22.8431 25.406 21.6836 24.7257 20.517C24.633 20.3587 24.5309 20.3227 24.3657 20.3227C19.9667 20.3266 15.567 20.2874 11.168 20.3446C9.47152 20.3666 8.09845 21.1845 7.2171 22.6747C6.64589 23.6407 6.18613 24.6733 5.64298 25.6573C5.02034 26.7871 4.44992 27.9427 3.96288 29.1344C3.66364 29.8677 3.35193 30.6081 3.3792 31.4401C3.39089 31.7896 3.52415 32.0724 3.69481 32.3858L3.69559 32.3866Z" fill="white"/>
<path d="M12.8202 16.482C12.51 15.4831 12.4602 14.4842 11.8071 13.7078C11.1409 12.9157 10.1668 12.7723 9.1958 12.4613C10.1738 12.1651 11.1432 12.0084 11.8001 11.2304C12.4477 10.4619 12.5428 9.48096 12.775 8.53296C12.9612 8.66537 12.9254 8.88709 12.9636 9.06258C13.0968 9.67839 13.2542 10.2809 13.5488 10.8442C14.0054 11.7178 14.8393 11.9967 15.6902 12.2552C15.9084 12.3218 16.1313 12.372 16.4305 12.4503C15.4673 12.7801 14.4824 12.8961 13.82 13.7039C13.1763 14.4889 13.0828 15.4674 12.821 16.4828L12.8202 16.482Z" fill="white"/>
<path d="M9.17036 6.60522C9.32076 7.80707 9.86859 8.58505 11.1372 8.78954C9.85612 8.96112 9.31842 9.76417 9.17192 10.948C9.01918 10.4223 8.92411 9.90363 8.60773 9.48056C8.26563 9.02458 7.69677 8.99011 7.19336 8.76603C8.46434 8.61091 9.00516 7.80315 9.17036 6.60522Z" fill="white"/>
</g>
<defs>
<clipPath id="clip0_1141_121">
<rect width="87.0489" height="33" fill="white"/>
</clipPath>
</defs>
</svg>
